<svg width="507" height="507" xmlns="http://www.w3.org/2000/svg">

 <g>
  <title>background</title>
  <rect fill="none" id="canvas_background" height="509" width="509" y="-1" x="-1"/>
 </g>
 <g>
  <title>Layer 1</title>
  <g id="svg_1">
   <path stroke="null" id="svg_2" d="m382.237,507.906397c11.278,0 24.519,-11.093618 29.342,-26.214641l93.815,-270.023279c5.615,-16.429018 -2.548,-26.219204 -17.236,-26.219204l-94.738,0l0,-64.519106c0,-22.267844 -11.91,-40.382046 -26.551,-40.382046l-231.926,0l-17.207,-68.695562c-1.791,-7.133132 -6.289,-11.852559 -11.313,-11.852559l-94.088,0c-3.218,0 -6.312,1.951345 -8.588,5.429698c-2.27,3.479874 -3.535,8.181049 -3.517,13.08907l0.23,102.4114l-0.46,346.709774c0,22.267844 11.913,40.382046 26.554,40.382046m342.655,-322.563589l-206.575,0c-9.522,0 -18.527,11.705029 -23.291,26.219204l-84.349,259.522821l-28.44,0c-1.289,0 -2.344,-1.600012 -2.344,-3.560482l0,-346.808634l-0.012,-84.000618l73.884,0l17.209,68.691c1.791,7.133132 6.286,11.857121 11.31,11.857121l240.269,0c1.288,0 2.34,1.600012 2.34,3.560482l0,64.519106l-0.001,0z"/>
  </g>
  <g id="svg_3"/>
  <g id="svg_4"/>
  <g id="svg_5"/>
  <g id="svg_6"/>
  <g id="svg_7"/>
  <g id="svg_8"/>
  <g id="svg_9"/>
  <g id="svg_10"/>
  <g id="svg_11"/>
  <g id="svg_12"/>
  <g id="svg_13"/>
  <g id="svg_14"/>
  <g id="svg_15"/>
  <g id="svg_16"/>
  <g id="svg_17"/>
 </g>
</svg>